<svg width="34" height="34" viewBox="0 0 34 34" fill="none" xmlns="http://www.w3.org/2000/svg">
<path d="M25.866 5.80537C25.866 5.0077 25.5547 4.25677 24.9905 3.69259L22.1734 0.8755C21.6171 0.319082 20.8273 0 20.0413 0H19.8701V5.97656H25.8661L25.866 5.80537Z" fill="#2405F2"/>
<path d="M18.1911 20.5552C18.3818 19.9764 18.7145 19.4375 19.1483 19.0008L25.8927 12.2836V7.96875H18.8934C18.3429 7.96875 17.9297 7.52323 17.9297 6.97266V0H2.98828C1.34048 0 0 1.34048 0 2.98828V31.0117C0 32.6595 1.34048 34 2.98828 34H22.8778C24.5256 34 25.8927 32.6595 25.8927 31.0117V23.5775L24.798 24.6455C24.3545 25.0852 23.8351 25.4052 23.2494 25.6008L20.0822 26.6582L19.5997 26.6845C18.802 26.6845 18.0472 26.2963 17.5783 25.6466C17.1134 24.9997 16.9869 24.1612 17.2398 23.4034L18.1911 20.5552ZM4.98047 17.9297H14.9091C15.4596 17.9297 15.9052 18.3752 15.9052 18.9258C15.9052 19.4764 15.4596 19.9219 14.9091 19.9219H4.98047C4.42989 19.9219 3.98438 19.4764 3.98438 18.9258C3.98438 18.3752 4.42989 17.9297 4.98047 17.9297ZM3.98438 14.9414C3.98438 14.3908 4.42989 13.9453 4.98047 13.9453H14.9091C15.4596 13.9453 15.9052 14.3908 15.9052 14.9414C15.9052 15.492 15.4596 15.9375 14.9091 15.9375H4.98047C4.42989 15.9375 3.98438 15.492 3.98438 14.9414ZM3.98438 22.9102C3.98438 22.3596 4.42989 21.9141 4.98047 21.9141H14.9091C15.4596 21.9141 15.9052 22.3596 15.9052 22.9102C15.9052 23.4607 15.4596 23.9062 14.9091 23.9062H4.98047C4.42989 23.9062 3.98438 23.4607 3.98438 22.9102ZM18.8934 27.8906C19.444 27.8906 19.8895 28.3361 19.8895 28.8867C19.8895 29.4373 19.4441 29.8828 18.8934 29.8828H12.9169C12.3663 29.8828 11.9208 29.4373 11.9208 28.8867C11.9208 28.3361 12.3663 27.8906 12.9169 27.8906H18.8934ZM4.98047 11.9531C4.42989 11.9531 3.98438 11.5076 3.98438 10.957C3.98438 10.4065 4.42989 9.96094 4.98047 9.96094H18.8934C19.444 9.96094 19.8895 10.4065 19.8895 10.957C19.8895 11.5076 19.444 11.9531 18.8934 11.9531H4.98047Z" fill="#2405F2"/>
<path d="M19.9956 21.4365L19.129 24.0364C18.9991 24.4259 19.3697 24.7964 19.7592 24.6663L22.3575 23.7985L19.9956 21.4365Z" fill="#2405F2"/>
<path d="M27.7321 13.2354L21.1719 19.7956L24.0011 22.6248C25.4838 21.1418 28.3689 18.2564 30.561 16.0643L27.7321 13.2354Z" fill="#2405F2"/>
<path d="M33.4149 10.3777C33.0648 10.0256 32.5492 9.82422 32.0025 9.82422C31.4557 9.82422 30.9402 10.0256 30.5881 10.3787L29.1406 11.8262L31.9694 14.6549C32.7618 13.8624 33.3095 13.3147 33.417 13.2074C34.1951 12.4281 34.195 11.1588 33.4149 10.3777Z" fill="#2405F2"/>
</svg>
