<svg width="35" height="35" viewBox="0 0 35 35" fill="none" xmlns="http://www.w3.org/2000/svg">
<g clip-path="url(#clip0_757_919)">
<path d="M29.3038 9.94438L31.656 7.59354C32.2263 7.02479 32.2263 6.10167 31.656 5.53146C31.0858 4.96125 30.1642 4.96125 29.594 5.53146L27.2417 7.88229C24.9463 5.985 22.0865 4.74542 18.9583 4.44938V2.91667H21.875C22.6815 2.91667 23.3333 2.26333 23.3333 1.45833C23.3333 0.653333 22.6815 0 21.875 0H13.125C12.3185 0 11.6667 0.653333 11.6667 1.45833C11.6667 2.26333 12.3185 2.91667 13.125 2.91667H16.0417V4.44938C8.28042 5.18583 2.1875 11.7367 2.1875 19.6875C2.1875 28.1313 9.05625 35 17.5 35C25.9438 35 32.8125 28.1313 32.8125 19.6875C32.8125 15.9892 31.4942 12.5942 29.3038 9.94438ZM18.9583 19.6875C18.9583 20.494 18.305 21.1458 17.5 21.1458C16.695 21.1458 16.0417 20.494 16.0417 19.6875V11.6667C16.0417 10.8602 16.695 10.2083 17.5 10.2083C18.305 10.2083 18.9583 10.8602 18.9583 11.6667V19.6875Z" fill="#2405F2"/>
</g>
<defs>
<clipPath id="clip0_757_919">
<rect width="35" height="35" fill="white"/>
</clipPath>
</defs>
</svg>
