<svg width="35" height="35" viewBox="0 0 35 35" fill="none" xmlns="http://www.w3.org/2000/svg">
<g clip-path="url(#clip0_757_976)">
<path d="M2.64172 9.89299L9.89237 2.64235L8.68379 1.43377C6.68481 -0.565208 3.43213 -0.565208 1.43341 1.43404C0.464898 2.40229 -0.0683594 3.68964 -0.0683594 5.05923C-0.0683594 6.42856 0.464898 7.71617 1.43341 8.68442L2.64172 9.89299Z" fill="#2405F2"/>
<path d="M4.0918 11.3426L6.992 8.44238L11.1478 12.5982L8.24757 15.4984L4.0918 11.3426Z" fill="#2405F2"/>
<path d="M8.44238 6.992L11.3426 4.0918L15.4984 8.24731L12.5982 11.1475L8.44238 6.992Z" fill="#2405F2"/>
<path d="M24.9643 30.764C24.9643 30.7643 24.9643 30.7643 24.964 30.7643L24.4863 31.2423L33.5261 34.8581C33.6494 34.9075 33.7784 34.9315 33.9066 34.9315C34.1736 34.9315 34.4358 34.8271 34.6318 34.6311C34.9218 34.3411 35.011 33.9061 34.8588 33.5251L31.243 24.4854L24.9643 30.764Z" fill="#2405F2"/>
<path d="M19.3652 26.615L22.2654 23.7148L25.6888 27.1384L22.7886 30.0386L19.3652 26.615Z" fill="#2405F2"/>
<path d="M23.7148 22.2657L26.615 19.3652L30.0386 22.7888L27.1384 25.689L23.7148 22.2657Z" fill="#2405F2"/>
<path d="M8.80609 27.5075C8.40555 27.9078 8.40555 28.5572 8.80609 28.9575L11.4646 31.616L8.44934 34.6313C8.04907 35.0318 7.39965 35.0318 6.99937 34.6313L0.232049 27.864C-0.168495 27.4637 -0.168495 26.8143 0.232049 26.414L26.414 0.232049C26.8143 -0.168495 27.4637 -0.168495 27.864 0.232049L34.6313 6.99911C34.8316 7.19938 34.9317 7.46187 34.9317 7.72436C34.9317 7.98658 34.8316 8.24907 34.6313 8.44934L31.616 11.4646L27.9908 7.83918C27.5903 7.43864 26.9411 7.43864 26.5406 7.83918C26.1403 8.23973 26.1403 8.88887 26.5406 9.28942L30.1658 12.9146L27.8757 15.2049L25.2172 12.5461C24.8169 12.1458 24.1675 12.1458 23.7669 12.5461C23.3667 12.9467 23.3667 13.5958 23.7669 13.9963L26.4255 16.6549L24.1354 18.9452L20.5103 15.3197C20.1097 14.9195 19.4606 14.9195 19.06 15.3197C18.6597 15.7203 18.6597 16.3694 19.06 16.77L22.6852 20.3952L20.3952 22.6855L17.7366 20.0269C17.3361 19.6264 16.6869 19.6264 16.2864 20.0269C15.8861 20.4272 15.8861 21.0764 16.2864 21.4769L18.9449 24.1354L16.6549 26.4258L13.0297 22.8003C12.6292 22.4 11.98 22.4 11.5795 22.8003C11.1792 23.2008 11.1792 23.85 11.5795 24.2505L15.2047 27.8757L12.9146 30.166L10.2561 27.5075C9.85579 27.107 9.20637 27.107 8.80609 27.5075Z" fill="#2405F2"/>
</g>
<defs>
<clipPath id="clip0_757_976">
<rect width="35" height="35" fill="white"/>
</clipPath>
</defs>
</svg>
