<svg width="35" height="35" viewBox="0 0 35 35" fill="none" xmlns="http://www.w3.org/2000/svg">
<path d="M34.9994 23.686C34.9994 19.3427 32.5078 15.4665 28.7761 13.5811C28.6602 21.9086 21.9086 28.6602 13.5811 28.7761C15.4665 32.5078 19.3427 34.9994 23.686 34.9994C25.7223 34.9994 27.7026 34.4571 29.4426 33.4266L34.95 34.95L33.4266 29.4426C34.4571 27.7026 34.9994 25.7223 34.9994 23.686Z" fill="#2405F2"/>
<path d="M26.7285 13.3643C26.7285 5.99506 20.7335 0 13.3643 0C5.99506 0 0 5.99506 0 13.3643C0 15.7659 0.639267 18.1043 1.85318 20.1572L0.0491333 26.6791L6.57131 24.8753C8.62423 26.0892 10.9626 26.7285 13.3643 26.7285C20.7335 26.7285 26.7285 20.7335 26.7285 13.3643ZM11.3135 10.2539H9.2627C9.2627 7.99217 11.1025 6.15234 13.3643 6.15234C15.626 6.15234 17.4658 7.99217 17.4658 10.2539C17.4658 11.4019 16.9798 12.5052 16.132 13.2807L14.3896 14.8754V16.4746H12.3389V13.9723L14.7475 11.7677C15.1779 11.3738 15.415 10.8363 15.415 10.2539C15.415 9.12304 14.4951 8.20312 13.3643 8.20312C12.2334 8.20312 11.3135 9.12304 11.3135 10.2539ZM12.3389 18.5254H14.3896V20.5762H12.3389V18.5254Z" fill="#2405F2"/>
</svg>
