<svg width="17" height="16" viewBox="0 0 17 16" fill="none" xmlns="http://www.w3.org/2000/svg">
<g clip-path="url(#clip0_1324_397)">
<path d="M8.33399 1.44062C10.4715 1.44062 10.7246 1.45 11.5652 1.4875C12.3465 1.52187 12.7684 1.65313 13.0496 1.7625C13.4215 1.90625 13.6902 2.08125 13.9684 2.35938C14.2496 2.64062 14.4215 2.90625 14.5652 3.27813C14.6746 3.55938 14.8059 3.98438 14.8402 4.7625C14.8777 5.60625 14.8871 5.85938 14.8871 7.99375C14.8871 10.1313 14.8777 10.3844 14.8402 11.225C14.8059 12.0063 14.6746 12.4281 14.5652 12.7094C14.4215 13.0813 14.2465 13.35 13.9684 13.6281C13.6871 13.9094 13.4215 14.0813 13.0496 14.225C12.7684 14.3344 12.3434 14.4656 11.5652 14.5C10.7215 14.5375 10.4684 14.5469 8.33399 14.5469C6.19649 14.5469 5.94336 14.5375 5.10274 14.5C4.32148 14.4656 3.89961 14.3344 3.61836 14.225C3.24648 14.0813 2.97773 13.9063 2.69961 13.6281C2.41836 13.3469 2.24648 13.0813 2.10273 12.7094C1.99336 12.4281 1.86211 12.0031 1.82773 11.225C1.79023 10.3813 1.78086 10.1281 1.78086 7.99375C1.78086 5.85625 1.79023 5.60313 1.82773 4.7625C1.86211 3.98125 1.99336 3.55938 2.10273 3.27813C2.24648 2.90625 2.42148 2.6375 2.69961 2.35938C2.98086 2.07812 3.24648 1.90625 3.61836 1.7625C3.89961 1.65313 4.32461 1.52187 5.10274 1.4875C5.94336 1.45 6.19649 1.44062 8.33399 1.44062ZM8.33399 0C6.16211 0 5.89023 0.009375 5.03711 0.046875C4.18711 0.084375 3.60273 0.221875 3.09648 0.41875C2.56836 0.625 2.12148 0.896875 1.67773 1.34375C1.23086 1.7875 0.958984 2.23438 0.752734 2.75938C0.555859 3.26875 0.418359 3.85 0.380859 4.7C0.343359 5.55625 0.333984 5.82812 0.333984 8C0.333984 10.1719 0.343359 10.4438 0.380859 11.2969C0.418359 12.1469 0.555859 12.7313 0.752734 13.2375C0.958984 13.7656 1.23086 14.2125 1.67773 14.6562C2.12148 15.1 2.56836 15.375 3.09336 15.5781C3.60273 15.775 4.18398 15.9125 5.03398 15.95C5.88711 15.9875 6.15898 15.9969 8.33086 15.9969C10.5027 15.9969 10.7746 15.9875 11.6277 15.95C12.4777 15.9125 13.0621 15.775 13.5684 15.5781C14.0934 15.375 14.5402 15.1 14.984 14.6562C15.4277 14.2125 15.7027 13.7656 15.9059 13.2406C16.1027 12.7313 16.2402 12.15 16.2777 11.3C16.3152 10.4469 16.3246 10.175 16.3246 8.00313C16.3246 5.83125 16.3152 5.55938 16.2777 4.70625C16.2402 3.85625 16.1027 3.27188 15.9059 2.76562C15.709 2.23438 15.4371 1.7875 14.9902 1.34375C14.5465 0.9 14.0996 0.625 13.5746 0.421875C13.0652 0.225 12.484 0.0875 11.634 0.05C10.7777 0.009375 10.5059 0 8.33399 0Z" fill="white"/>
<path d="M8.33398 3.89062C6.06523 3.89062 4.22461 5.73125 4.22461 8C4.22461 10.2688 6.06523 12.1094 8.33398 12.1094C10.6027 12.1094 12.4434 10.2688 12.4434 8C12.4434 5.73125 10.6027 3.89062 8.33398 3.89062ZM8.33398 10.6656C6.86211 10.6656 5.66836 9.47188 5.66836 8C5.66836 6.52813 6.86211 5.33437 8.33398 5.33437C9.80586 5.33437 10.9996 6.52813 10.9996 8C10.9996 9.47188 9.80586 10.6656 8.33398 10.6656Z" fill="white"/>
<path d="M13.5652 3.72891C13.5652 4.26016 13.134 4.68828 12.6059 4.68828C12.0746 4.68828 11.6465 4.25703 11.6465 3.72891C11.6465 3.19766 12.0777 2.76953 12.6059 2.76953C13.134 2.76953 13.5652 3.20078 13.5652 3.72891Z" fill="white"/>
</g>
<defs>
<clipPath id="clip0_1324_397">
<rect width="16" height="16" fill="white" transform="translate(0.333984)"/>
</clipPath>
</defs>
</svg>
