<svg width="17" height="16" viewBox="0 0 17 16" fill="none" xmlns="http://www.w3.org/2000/svg">
<g clip-path="url(#clip0_1324_395)">
<path d="M5.69945 14.5005C11.7357 14.5005 15.0382 9.49829 15.0382 5.16173C15.0382 5.0211 15.0351 4.87735 15.0288 4.73673C15.6713 4.27213 16.2257 3.69666 16.666 3.03735C16.0677 3.30356 15.4324 3.47741 14.782 3.55298C15.4669 3.14243 15.9797 2.49747 16.2254 1.73767C15.5811 2.11953 14.8764 2.3889 14.1416 2.53423C13.6466 2.0082 12.992 1.6599 12.2791 1.54319C11.5663 1.42648 10.8348 1.54786 10.1978 1.88855C9.56088 2.22925 9.05388 2.77029 8.75525 3.42803C8.45661 4.08577 8.38297 4.82357 8.5457 5.52735C7.24101 5.46188 5.96464 5.12296 4.79934 4.53255C3.63403 3.94215 2.60581 3.11345 1.78133 2.10017C1.36228 2.82265 1.23405 3.67759 1.4227 4.49122C1.61135 5.30485 2.10272 6.01612 2.79695 6.48048C2.27577 6.46393 1.766 6.32361 1.30977 6.0711V6.11173C1.3093 6.86992 1.57141 7.60488 2.05156 8.19167C2.5317 8.77846 3.20023 9.18086 3.94352 9.33048C3.46072 9.46257 2.954 9.48182 2.46258 9.38673C2.67232 10.0388 3.0804 10.6091 3.62986 11.018C4.17933 11.427 4.84276 11.6542 5.52758 11.668C4.36497 12.5812 2.9288 13.0766 1.45039 13.0742C1.18821 13.0738 0.926282 13.0578 0.666016 13.0261C2.16792 13.9897 3.91504 14.5014 5.69945 14.5005Z" fill="white"/>
</g>
<defs>
<clipPath id="clip0_1324_395">
<rect width="16" height="16" fill="white" transform="translate(0.666016)"/>
</clipPath>
</defs>
</svg>
